<svg xmlns="http://www.w3.org/2000/svg" viewBox="0 0 1200 750" width="100%" height="100%" style="background: #0b0f19; font-family: -apple-system, BlinkMacSystemFont, 'Segoe UI', Roboto, Helvetica, Arial, sans-serif;">
  <defs>
    <!-- Gradients -->
    <linearGradient id="bg-gradient" x1="0%" y1="0%" x2="100%" y2="100%">
      <stop offset="0%" stop-color="#0b0f19"/>
      <stop offset="100%" stop-color="#111827"/>
    </linearGradient>
    <linearGradient id="panel-gradient" x1="0%" y1="0%" x2="0%" y2="100%">
      <stop offset="0%" stop-color="#161e2e"/>
      <stop offset="100%" stop-color="#0f172a"/>
    </linearGradient>
    <linearGradient id="accent-cyan" x1="0%" y1="0%" x2="100%" y2="0%">
      <stop offset="0%" stop-color="#06b6d4"/>
      <stop offset="100%" stop-color="#3b82f6"/>
    </linearGradient>

    <!-- Filters / Shadows -->
    <filter id="glow-cyan" x="-20%" y="-20%" width="140%" height="140%">
      <feGaussianBlur stdDeviation="6" result="blur" />
      <feComposite in="SourceGraphic" in2="blur" operator="over" />
    </filter>
    <filter id="glow-red" x="-20%" y="-20%" width="140%" height="140%">
      <feGaussianBlur stdDeviation="6" result="blur" />
      <feComposite in="SourceGraphic" in2="blur" operator="over" />
    </filter>
    <filter id="card-shadow" x="-10%" y="-10%" width="120%" height="120%">
      <feDropShadow dx="0" dy="4" stdDeviation="8" flood-color="#000" flood-opacity="0.5"/>
    </filter>
  </defs>

  <!-- Grid Pattern Background -->
  <rect width="1200" height="750" fill="url(#bg-gradient)"/>
  <path d="M 0 0 L 1200 0 M 0 50 L 1200 50 M 0 100 L 1200 100 M 0 150 L 1200 150 M 0 200 L 1200 200 M 0 250 L 1200 250 M 0 300 L 1200 300 M 0 350 L 1200 350 M 0 400 L 1200 400 M 0 450 L 1200 450 M 0 500 L 1200 500 M 0 550 L 1200 550 M 0 600 L 1200 600 M 0 650 L 1200 650 M 0 700 L 1200 700" stroke="#1e293b" stroke-width="0.5" opacity="0.4"/>
  <path d="M 0 0 L 0 750 M 50 0 L 50 750 M 100 0 L 100 750 M 150 0 L 150 750 M 200 0 L 200 750 M 250 0 L 250 750 M 300 0 L 300 750 M 350 0 L 350 750 M 400 0 L 400 750 M 450 0 L 450 750 M 500 0 L 500 750 M 550 0 L 550 750 M 600 0 L 600 750 M 650 0 L 650 750 M 700 0 L 700 750 M 750 0 L 750 750 M 800 0 L 800 750 M 850 0 L 850 750 M 900 0 L 900 750 M 950 0 L 950 750 M 1000 0 L 1000 750 M 1050 0 L 1050 750 M 1100 0 L 1100 750 M 1150 0 L 1150 750" stroke="#1e293b" stroke-width="0.5" opacity="0.4"/>

  <!-- ==================== HEADER BAR ==================== -->
  <rect x="0" y="0" width="1200" height="54" fill="#0f172a" stroke="#1e293b" stroke-width="1"/>
  
  <!-- Logo & Title -->
  <rect x="16" y="14" width="26" height="26" rx="6" fill="url(#accent-cyan)"/>
  <path d="M 23 27 L 27 20 L 33 29 L 37 23" stroke="#fff" stroke-width="2" fill="none" stroke-linecap="round"/>
  <text x="50" y="31" fill="#ffffff" font-size="16" font-weight="700" letter-spacing="0.5">CryptoTrace™</text>
  <rect x="155" y="17" width="110" height="20" rx="10" fill="#1e293b" stroke="#334155" stroke-width="1"/>
  <text x="163" y="31" fill="#38bdf8" font-size="10" font-weight="600">FORENSIC SUITE</text>

  <!-- Case Metadata Badge -->
  <rect x="280" y="14" width="310" height="26" rx="4" fill="#1e293b" opacity="0.8"/>
  <text x="290" y="31" fill="#94a3b8" font-size="11" font-family="monospace">CASE: <tspan fill="#f1f5f9">CASE-SILK-001</tspan> | <tspan fill="#06b6d4">HIDTA Narcotics TF</tspan></text>

  <!-- Header Buttons -->
  <g transform="translate(920, 12)">
    <!-- AI Copilot Button -->
    <rect x="0" y="0" width="130" height="30" rx="6" fill="#1e1b4b" stroke="#6366f1" stroke-width="1"/>
    <text x="35" y="19" fill="#a5b4fc" font-size="11" font-weight="600">✨ AI Copilot</text>
    
    <!-- Generate Dossier Button -->
    <rect x="140" y="0" width="130" height="30" rx="6" fill="url(#accent-cyan)"/>
    <text x="152" y="19" fill="#ffffff" font-size="11" font-weight="700">📜 Legal Dossier</text>
  </g>

  <!-- ==================== OMNIBAR SEARCH BAR ==================== -->
  <rect x="0" y="54" width="1200" height="50" fill="#111827" stroke="#1e293b" stroke-width="1"/>
  
  <!-- Search Input Container -->
  <rect x="16" y="62" width="600" height="34" rx="6" fill="#1e293b" stroke="#334155" stroke-width="1"/>
  <text x="30" y="83" fill="#64748b" font-size="13">🔍</text>
  <text x="50" y="84" fill="#f8fafc" font-size="12" font-family="monospace">0x98174f85e49f87f4c9c1b3f9429188d3f6a2b001</text>
  
  <!-- Network Selector -->
  <rect x="626" y="62" width="110" height="34" rx="6" fill="#1e293b" stroke="#334155" stroke-width="1"/>
  <text x="638" y="83" fill="#627eea" font-size="12" font-weight="600">⬡ Ethereum</text>

  <!-- Direction Selector -->
  <rect x="746" y="62" width="110" height="34" rx="6" fill="#1e293b" stroke="#334155" stroke-width="1"/>
  <text x="758" y="83" fill="#cbd5e1" font-size="11">Forward ➔</text>

  <!-- Mode Badge -->
  <rect x="866" y="62" width="90" height="34" rx="6" fill="#065f46" stroke="#10b981" stroke-width="1"/>
  <text x="880" y="83" fill="#34d399" font-size="11" font-weight="600">DEMO CASE</text>

  <!-- Trace Button -->
  <rect x="966" y="62" width="218" height="34" rx="6" fill="#2563eb"/>
  <text x="1030" y="83" fill="#ffffff" font-size="12" font-weight="700">TRACE FUNDS</text>

  <!-- ==================== TAB NAVIGATION ==================== -->
  <rect x="0" y="104" width="1200" height="40" fill="#0f172a" stroke="#1e293b" stroke-width="1"/>
  
  <!-- Active Tab: Graph -->
  <rect x="16" y="110" width="140" height="28" rx="5" fill="#1e293b" stroke="#38bdf8" stroke-width="1"/>
  <text x="32" y="128" fill="#38bdf8" font-size="11" font-weight="700">🌿 Graph Visualizer</text>

  <!-- Tab: Risk -->
  <rect x="164" y="110" width="130" height="28" rx="5" fill="#1e293b" opacity="0.4"/>
  <text x="178" y="128" fill="#94a3b8" font-size="11">⚡ Risk &amp; Factors</text>

  <!-- Tab: Evidence -->
  <rect x="302" y="110" width="140" height="28" rx="5" fill="#1e293b" opacity="0.4"/>
  <text x="316" y="128" fill="#94a3b8" font-size="11">🛡️ Evidence Ledger (6)</text>

  <!-- Tab: Timeline -->
  <rect x="450" y="110" width="150" height="28" rx="5" fill="#1e293b" opacity="0.4"/>
  <text x="464" y="128" fill="#94a3b8" font-size="11">🕒 Timeline (8 Hops)</text>

  <!-- Tab: Clusters -->
  <rect x="608" y="110" width="140" height="28" rx="5" fill="#1e293b" opacity="0.4"/>
  <text x="622" y="128" fill="#94a3b8" font-size="11">👥 Wallet Clusters (3)</text>

  <!-- Top Metrics Bar -->
  <g transform="translate(900, 116)">
    <text x="0" y="14" fill="#64748b" font-size="11" font-family="monospace">NODES: <tspan fill="#f1f5f9" font-weight="bold">14</tspan> | EDGES: <tspan fill="#f1f5f9" font-weight="bold">18</tspan> | VOL: <tspan fill="#38bdf8" font-weight="bold">142.5 ETH</tspan></text>
  </g>

  <!-- ==================== GRAPH CANVAS (LEFT / CENTER AREA) ==================== -->
  <!-- Canvas Bounds: x: 0 to 820, y: 144 to 750 -->
  <rect x="0" y="144" width="820" height="606" fill="#0b0f19"/>

  <!-- Canvas Overlay Controls -->
  <g transform="translate(20, 160)">
    <rect x="0" y="0" width="120" height="32" rx="6" fill="#161e2e" stroke="#334155" stroke-width="1"/>
    <text x="12" y="20" fill="#94a3b8" font-size="10">Layout: <tspan fill="#f1f5f9" font-weight="bold">Dagre LR</tspan></text>
  </g>

  <!-- GRAPH EDGES (Transfer Paths) -->
  <!-- Target -> Tornado Cash -->
  <path d="M 120 340 L 260 260" stroke="#ef4444" stroke-width="2.5" stroke-dasharray="4 2"/>
  <rect x="165" y="280" width="65" height="18" rx="3" fill="#1e1b4b" stroke="#6366f1" stroke-width="0.5"/>
  <text x="172" y="293" fill="#c7d2fe" font-size="9" font-family="monospace">100.0 ETH</text>

  <!-- Target -> Peel Mule 1 -->
  <path d="M 120 340 L 260 450" stroke="#f59e0b" stroke-width="2"/>
  <rect x="165" y="405" width="60" height="18" rx="3" fill="#1e293b" stroke="#f59e0b" stroke-width="0.5"/>
  <text x="172" y="418" fill="#fde68a" font-size="9" font-family="monospace">42.5 ETH</text>

  <!-- Tornado Cash -> Synapse Bridge -->
  <path d="M 370 260 L 490 260" stroke="#ef4444" stroke-width="2.5"/>
  <rect x="405" y="245" width="60" height="18" rx="3" fill="#1e1b4b" stroke="#6366f1" stroke-width="0.5"/>
  <text x="412" y="258" fill="#c7d2fe" font-size="9" font-family="monospace">98.2 ETH</text>

  <!-- Peel Mule 1 -> Peel Mule 2 -->
  <path d="M 370 450 L 490 450" stroke="#f59e0b" stroke-width="2"/>
  <rect x="405" y="435" width="60" height="18" rx="3" fill="#1e293b" fill-opacity="0.9"/>
  <text x="412" y="448" fill="#cbd5e1" font-size="9" font-family="monospace">40.1 ETH</text>

  <!-- Synapse Bridge -> Binance Exchange Deposit -->
  <path d="M 600 260 L 710 340" stroke="#10b981" stroke-width="3" filter="url(#glow-cyan)"/>
  <rect x="635" y="280" width="65" height="18" rx="3" fill="#064e3b" stroke="#10b981" stroke-width="0.5"/>
  <text x="642" y="293" fill="#a7f3d0" font-size="9" font-family="monospace">97.8 ETH</text>

  <!-- Peel Mule 2 -> Binance Exchange Deposit -->
  <path d="M 600 450 L 710 340" stroke="#10b981" stroke-width="2"/>
  <rect x="635" y="405" width="65" height="18" rx="3" fill="#064e3b" stroke="#10b981" stroke-width="0.5"/>
  <text x="642" y="418" fill="#a7f3d0" font-size="9" font-family="monospace">39.5 ETH</text>


  <!-- GRAPH NODES -->

  <!-- NODE 1: Target Suspect Deposit (Selected Node) -->
  <g transform="translate(40, 305)" filter="url(#card-shadow)">
    <rect x="0" y="0" width="140" height="70" rx="8" fill="#1e293b" stroke="#06b6d4" stroke-width="2" filter="url(#glow-cyan)"/>
    <rect x="8" y="8" width="124" height="18" rx="4" fill="#0891b2"/>
    <text x="14" y="21" fill="#ffffff" font-size="9" font-weight="700">🔴 SUSPECT SEED</text>
    <text x="10" y="43" fill="#cbd5e1" font-size="9" font-family="monospace">0x9817...b001</text>
    <text x="10" y="58" fill="#94a3b8" font-size="9">Balance: 0.2 ETH</text>
  </g>

  <!-- NODE 2: Mixer (Tornado Cash) -->
  <g transform="translate(260, 225)" filter="url(#card-shadow)">
    <rect x="0" y="0" width="140" height="70" rx="8" fill="#1e1b4b" stroke="#ef4444" stroke-width="2" filter="url(#glow-red)"/>
    <rect x="8" y="8" width="124" height="18" rx="4" fill="#dc2626"/>
    <text x="14" y="21" fill="#ffffff" font-size="9" font-weight="700">🌀 TORNADO CASH</text>
    <text x="10" y="43" fill="#fca5a5" font-size="9" font-family="monospace">0xd90e...100 ETH</text>
    <text x="10" y="58" fill="#ef4444" font-size="8" font-weight="bold">OFAC SANCTIONED</text>
  </g>

  <!-- NODE 3: Peel Mule Wallet 1 -->
  <g transform="translate(260, 415)" filter="url(#card-shadow)">
    <rect x="0" y="0" width="140" height="70" rx="8" fill="#1e293b" stroke="#f59e0b" stroke-width="1.5"/>
    <rect x="8" y="8" width="124" height="18" rx="4" fill="#d97706"/>
    <text x="14" y="21" fill="#ffffff" font-size="9" font-weight="700">🧅 PEEL CHAIN #1</text>
    <text x="10" y="43" fill="#cbd5e1" font-size="9" font-family="monospace">0x3a71...e9b2</text>
    <text x="10" y="58" fill="#fde68a" font-size="9">Intermediate Mule</text>
  </g>

  <!-- NODE 4: Synapse Bridge -->
  <g transform="translate(480, 225)" filter="url(#card-shadow)">
    <rect x="0" y="0" width="140" height="70" rx="8" fill="#1e293b" stroke="#8b5cf6" stroke-width="1.5"/>
    <rect x="8" y="8" width="124" height="18" rx="4" fill="#6d28d9"/>
    <text x="14" y="21" fill="#ffffff" font-size="9" font-weight="700">🌉 SYNAPSE BRIDGE</text>
    <text x="10" y="43" fill="#c4b5fd" font-size="9" font-family="monospace">0x2791...cross-chain</text>
    <text x="10" y="58" fill="#a78bfa" font-size="9">Arbitrum ➔ ETH</text>
  </g>

  <!-- NODE 5: Peel Mule Wallet 2 -->
  <g transform="translate(480, 415)" filter="url(#card-shadow)">
    <rect x="0" y="0" width="140" height="70" rx="8" fill="#1e293b" stroke="#f59e0b" stroke-width="1.5"/>
    <rect x="8" y="8" width="124" height="18" rx="4" fill="#d97706"/>
    <text x="14" y="21" fill="#ffffff" font-size="9" font-weight="700">🧅 PEEL CHAIN #2</text>
    <text x="10" y="43" fill="#cbd5e1" font-size="9" font-family="monospace">0x7c4f...aa10</text>
    <text x="10" y="58" fill="#fde68a" font-size="9">Pass-through Hop</text>
  </g>

  <!-- NODE 6: Real Receiver / Binance Cashout Endpoint -->
  <g transform="translate(680, 305)" filter="url(#card-shadow)">
    <rect x="0" y="0" width="130" height="75" rx="8" fill="#064e3b" stroke="#10b981" stroke-width="2.5" filter="url(#glow-cyan)"/>
    <rect x="6" y="6" width="118" height="20" rx="4" fill="#059669"/>
    <text x="10" y="20" fill="#ffffff" font-size="9" font-weight="800">🏦 BINANCE CASHOUT</text>
    <text x="10" y="43" fill="#a7f3d0" font-size="9" font-family="monospace">0x28c6...c010</text>
    <text x="10" y="56" fill="#34d399" font-size="8" font-weight="bold">TARGET FOR SUBPOENA</text>
    <text x="10" y="67" fill="#6ee7b7" font-size="7">Regulated CEX Endpoint</text>
  </g>


  <!-- ==================== INSPECTOR DRAWER (RIGHT PANEL) ==================== -->
  <rect x="820" y="144" width="380" height="606" fill="url(#panel-gradient)" stroke="#1e293b" stroke-width="1"/>

  <!-- Drawer Header -->
  <rect x="820" y="144" width="380" height="48" fill="#0f172a" stroke="#1e293b" stroke-width="1"/>
  <text x="840" y="173" fill="#ffffff" font-size="14" font-weight="700">Entity &amp; Node Inspector</text>
  <rect x="1145" y="158" width="40" height="20" rx="4" fill="#1e293b"/>
  <text x="1156" y="172" fill="#94a3b8" font-size="11">ESC</text>

  <!-- Selected Node Overview Card -->
  <g transform="translate(836, 206)">
    <rect x="0" y="0" width="348" height="90" rx="8" fill="#1e293b" stroke="#334155" stroke-width="1"/>
    <text x="14" y="24" fill="#64748b" font-size="10" font-weight="600">TARGET ADDRESS</text>
    <text x="14" y="44" fill="#f8fafc" font-size="12" font-family="monospace" font-weight="bold">0x98174f85e49f87f4c9c1b3f9429188d3f6a2b001</text>
    <rect x="14" y="56" width="110" height="20" rx="4" fill="#1e1b4b" stroke="#6366f1" stroke-width="0.5"/>
    <text x="22" y="70" fill="#a5b4fc" font-size="9" font-weight="600">DARKNET VENDOR</text>

    <rect x="132" y="56" width="90" height="20" rx="4" fill="#064e3b" stroke="#10b981" stroke-width="0.5"/>
    <text x="140" y="70" fill="#6ee7b7" font-size="9" font-weight="600">ACTIVE TARGET</text>
  </g>

  <!-- Deterministic Risk Gauge Component -->
  <g transform="translate(836, 310)">
    <rect x="0" y="0" width="348" height="125" rx="8" fill="#1e293b" stroke="#ef4444" stroke-width="1.5"/>
    <text x="14" y="24" fill="#cbd5e1" font-size="12" font-weight="700">DETERMINISTIC RISK SCORE</text>

    <!-- Score Circle Gauge -->
    <circle cx="50" cy="75" r="30" fill="#0f172a" stroke="#334155" stroke-width="4"/>
    <circle cx="50" cy="75" r="30" fill="none" stroke="#ef4444" stroke-width="5" stroke-dasharray="160 30"/>
    <text x="50" y="78" fill="#ef4444" font-size="18" font-weight="900" text-anchor="middle">92</text>
    <text x="50" y="90" fill="#64748b" font-size="7" text-anchor="middle">/ 100</text>

    <text x="95" y="65" fill="#ef4444" font-size="16" font-weight="800">CRITICAL RISK</text>
    <text x="95" y="82" fill="#94a3b8" font-size="10">High probability illicit drug proceed pipeline</text>
    <text x="95" y="96" fill="#64748b" font-size="9" font-family="monospace">Evidentiary Confidence: 99.4%</text>
  </g>

  <!-- Detected Suspicious Rule Factors -->
  <g transform="translate(836, 450)">
    <text x="0" y="0" fill="#94a3b8" font-size="11" font-weight="700">TRIGGERED FORENSIC RULES (4)</text>

    <!-- Factor 1 -->
    <rect x="0" y="10" width="348" height="32" rx="6" fill="#1e1b4b" stroke="#4338ca" stroke-width="1"/>
    <text x="12" y="30" fill="#ef4444" font-size="10" font-weight="bold">🔴 MIXER INTERACTION</text>
    <text x="160" y="30" fill="#a5b4fc" font-size="10">Tornado Cash Pool (+35 pts)</text>

    <!-- Factor 2 -->
    <rect x="0" y="48" width="348" height="32" rx="6" fill="#1e1b4b" stroke="#4338ca" stroke-width="1"/>
    <text x="12" y="68" fill="#f59e0b" font-size="10" font-weight="bold">🌉 CROSS-CHAIN BRIDGE</text>
    <text x="160" y="68" fill="#a5b4fc" font-size="10">Synapse Hop (+20 pts)</text>

    <!-- Factor 3 -->
    <rect x="0" y="86" width="348" height="32" rx="6" fill="#1e1b4b" stroke="#4338ca" stroke-width="1"/>
    <text x="12" y="106" fill="#f59e0b" font-size="10" font-weight="bold">🧅 PEEL CHAIN STRIP</text>
    <text x="160" y="106" fill="#a5b4fc" font-size="10">2 Pass-through Hops (+15 pts)</text>

    <!-- Factor 4 -->
    <rect x="0" y="124" width="348" height="32" rx="6" fill="#064e3b" stroke="#047857" stroke-width="1"/>
    <text x="12" y="144" fill="#34d399" font-size="10" font-weight="bold">🏦 REGULATED CASHOUT</text>
    <text x="160" y="144" fill="#a7f3d0" font-size="10">Binance Deposit (+22 pts)</text>
  </g>

  <!-- Floating Copilot Prompt Widget -->
  <g transform="translate(836, 645)">
    <rect x="0" y="0" width="348" height="46" rx="8" fill="#1e1b4b" stroke="#6366f1" stroke-width="1.5"/>
    <text x="14" y="27" fill="#c7d2fe" font-size="11">💬 Copilot: "Generate Subpoena Notice for Binance"</text>
    <rect x="290" y="10" width="46" height="26" rx="4" fill="#4f46e5"/>
    <text x="302" y="27" fill="#ffffff" font-size="10" font-weight="bold">RUN</text>
  </g>
</svg>
